<?xml version="1.0" encoding="UTF-8"?>
<!DOCTYPE svg PUBLIC "-//W3C//DTD SVG 1.1//EN" "http://www.w3.org/Graphics/SVG/1.1/DTD/svg11.dtd">
<!-- Creator: CorelDRAW X6 -->
<svg xmlns="http://www.w3.org/2000/svg" xml:space="preserve" width="402px" height="402px" version="1.1" shape-rendering="geometricPrecision" text-rendering="geometricPrecision" image-rendering="optimizeQuality" fill-rule="evenodd" clip-rule="evenodd" fill="currentColor"
viewBox="0 0 812 812"
 xmlns:xlink="http://www.w3.org/1999/xlink">
 <g id="Capa_x0020_1">
  <metadata id="CorelCorpID_0Corel-Layer"/>
  <g id="_1280381728">
   <g>
    <rect x="167" y="284" width="65.3185" height="65.3185"/>
    <rect x="511" y="284" width="65.3185" height="65.3185"/>
    <rect x="580" y="284" width="65.3185" height="65.3185"/>
    <rect x="167" y="352" width="65.3185" height="65.3185"/>
    <rect x="580" y="352" width="65.3185" height="65.3185"/>
    <rect x="649" y="352" width="65.3185" height="65.3185"/>
    <rect x="98" y="352" width="65.3185" height="65.3185"/>
    <rect x="236" y="284" width="65.3185" height="65.3185"/>
    <rect x="304" y="284" width="65.3185" height="65.3185"/>
    <rect x="304" y="352" width="65.3185" height="65.3185"/>
    <rect x="443" y="284" width="65.3185" height="65.3185"/>
    <rect x="443" y="352" width="65.3185" height="65.3185"/>
    <rect x="167" y="421" width="65.3185" height="65.3185"/>
    <rect x="511" y="421" width="65.3185" height="65.3185"/>
    <rect x="580" y="421" width="65.3185" height="65.3185"/>
    <rect x="649" y="421" width="65.3185" height="65.3185"/>
    <rect x="98" y="421" width="65.3185" height="65.3185"/>
    <rect x="236" y="421" width="65.3185" height="65.3185"/>
    <rect x="304" y="421" width="65.3185" height="65.3185"/>
    <rect x="443" y="421" width="65.3185" height="65.3185"/>
    <rect x="236" y="215" width="65.3185" height="65.3185"/>
    <rect x="511" y="215" width="65.3185" height="65.3185"/>
    <rect x="717" y="421" width="65.3185" height="65.3185"/>
    <rect x="30" y="421" width="65.3185" height="65.3185"/>
    <rect x="30" y="490" width="65.3185" height="65.3185"/>
    <rect x="717" y="490" width="65.3185" height="65.3185"/>
    <rect x="167" y="490" width="65.3185" height="65.3185"/>
    <rect x="304" y="490" width="65.3185" height="65.3185"/>
    <rect x="443" y="490" width="65.3185" height="65.3185"/>
    <rect x="580" y="490" width="65.3185" height="65.3185"/>
    <rect x="30" y="558" width="65.3185" height="65.3185"/>
    <rect x="717" y="558" width="65.3185" height="65.3185"/>
    <rect x="167" y="558" width="65.3185" height="65.3185"/>
    <rect x="580" y="558" width="65.3185" height="65.3185"/>
    <rect x="236" y="627" width="65.3185" height="65.3185"/>
    <rect x="511" y="627" width="65.3185" height="65.3185"/>
    <rect x="167" y="146" width="65.3185" height="65.3185"/>
    <rect x="580" y="146" width="65.3185" height="65.3185"/>
    <rect x="373" y="284" width="65.3185" height="65.3185"/>
    <rect x="373" y="352" width="65.3185" height="65.3185"/>
    <rect x="373" y="421" width="65.3185" height="65.3185"/>
    <rect x="373" y="490" width="65.3185" height="65.3185"/>
    <rect x="304" y="627" width="65.3185" height="65.3185"/>
    <rect x="443" y="627" width="65.3185" height="65.3185"/>
    <rect x="236" y="490" width="65.3185" height="65.3185"/>
    <rect x="511" y="490" width="65.3185" height="65.3185"/>
   </g>
  </g>
 </g>
</svg>
