<?xml version="1.0" encoding="UTF-8"?>
<!DOCTYPE svg PUBLIC "-//W3C//DTD SVG 1.1//EN" "http://www.w3.org/Graphics/SVG/1.1/DTD/svg11.dtd">
<!-- Creator: CorelDRAW X6 -->
<svg xmlns="http://www.w3.org/2000/svg" xml:space="preserve" width="402px" height="402px" version="1.1" shape-rendering="geometricPrecision" text-rendering="geometricPrecision" image-rendering="optimizeQuality" fill-rule="evenodd" clip-rule="evenodd" fill="currentColor"
viewBox="0 0 1673 1673"
 xmlns:xlink="http://www.w3.org/1999/xlink">
 <g id="Capa_x0020_1">
  <metadata id="CorelCorpID_0Corel-Layer"/>
  <g id="_1280379208">
   <rect x="313" y="209" width="1047" height="144" rx="45" ry="72"/>
   <rect x="618" y="139" width="437.497" height="53.1049" rx="19" ry="27"/>
   <path d="M433 396l807 0 0 1085c0,29 -24,54 -54,54l-699 0c-30,0 -54,-25 -54,-54l0 -1085zm173 176l0 0c32,0 58,26 58,57l0 672c0,32 -26,58 -58,58l0 0c-32,0 -58,-26 -58,-58l0 -672c0,-31 26,-57 58,-57zm230 0l0 0c32,0 58,26 58,57l0 672c0,32 -26,58 -58,58l0 0c-31,0 -57,-26 -57,-58l0 -672c0,-31 26,-57 57,-57zm231 0l0 0c32,0 58,26 58,57l0 672c0,32 -26,58 -58,58l0 0c-32,0 -58,-26 -58,-58l0 -672c0,-31 26,-57 58,-57z"/>
  </g>
 </g>
</svg>
